<?xml version="1.0" encoding="utf-8"?>
<!-- Generator: Adobe Illustrator 19.0.0, SVG Export Plug-In . SVG Version: 6.00 Build 0)  -->
<svg version="1.1" id="Layer_1" xmlns="http://www.w3.org/2000/svg" xmlns:xlink="http://www.w3.org/1999/xlink" x="0px" y="0px"
	 viewBox="0 0 519 422.5" style="enable-background:new 0 0 519 422.5;" xml:space="preserve">
<style type="text/css">
	.st0{fill:#232323;}
	.st1{fill:#F2F2F2;stroke:#232323;stroke-width:4;stroke-miterlimit:10;}
	.st2{fill:#B73030;}
	.st3{fill:none;stroke:#232323;stroke-width:8;stroke-linecap:square;stroke-miterlimit:10;}
	.st4{fill:none;stroke:#232323;stroke-width:4;stroke-miterlimit:10;}
	.st5{fill:none;stroke:#232323;stroke-width:2;stroke-miterlimit:10;}
</style>
<path id="XMLID_40_" class="st0" d="M466.3,201.4C466.3,201.4,466.3,201.4,466.3,201.4c0.2,3.5,0.3,7,0.3,10.6
	c0,33.8-8.1,65.8-22.5,94c-1.8,3.5-3.6,6.9-5.5,10.2C402.7,378,335.7,419.6,259,419.6c-102.7,0-187.9-74.5-204.6-172.4
	c-0.6-3.4-1.1-6.8-1.5-10.2c-1-8.2-1.5-16.5-1.5-25c0-2.6-0.3-5.2-0.2-7.7c0-1.1-0.2-2.1-0.2-3.2V201c0-2.6,0.7-5.1,0.9-7.6
	c9.4-105.9,98.6-189,207-189c2.4,0,4.8,0.1,7.2,0.1c0.5,0,1.1,0.1,1.7,0.1c1,0,2,0.1,3,0.2c0.8,0,1.6,0.1,2.3,0.1
	c0.5,0,1,0.1,1.6,0.1c0.6,0,1.2,0.1,1.8,0.2c0.8,0.1,1.6,0.1,2.5,0.2c0.6,0,1.2,0.1,1.7,0.2c0.5,0.1,1.1,0.1,1.6,0.2
	c0.8,0.1,1.5,0.2,2.3,0.3c0.8,0.1,1.7,0.2,2.5,0.3c0.2,0,0.3,0,0.4,0.1c0.1,0,0.3,0,0.4,0.1c0,0,0.1,0,0.1,0c0.2,0,0.4,0,0.6,0.1
	c0.2,0,0.3,0.1,0.5,0.1c0.6,0.1,1.3,0.2,2,0.3c0.1,0,0.2,0.1,0.3,0.1h0c0.2,0,0.4,0,0.7,0.1c0.4,0.1,0.8,0.1,1.2,0.2
	c0.1,0,0.2,0,0.3,0c0,0,0.1,0,0.2,0c1.1,0.2,2.1,0.4,3.2,0.6c0.2,0,0.4,0.1,0.5,0.1c0.5,0.1,1.1,0.2,1.6,0.3c0.2,0,0.4,0.1,0.6,0.1
	c0.4,0.1,0.8,0.1,1.1,0.2c0.8,0.2,1.6,0.3,2.4,0.5c0.6,0.1,1.2,0.3,1.8,0.4c0.3,0.1,0.6,0.1,0.9,0.2c0.7,0.2,1.3,0.3,2,0.5
	c0.7,0.1,1.3,0.3,2,0.5c0.4,0.1,0.8,0.2,1.2,0.3c0.4,0.1,0.8,0.2,1.2,0.3c0.4,0.1,0.9,0.2,1.3,0.4c0.3,0.1,0.5,0.1,0.8,0.2
	c0.9,0.2,1.8,0.5,2.7,0.8c0.1,0,0.2,0,0.2,0.1c0.8,0.2,1.5,0.5,2.3,0.7c0.8,0.2,1.5,0.5,2.3,0.7c4.6,1.4,9.1,3,13.5,4.8
	c0.6,0.2,1.2,0.5,1.9,0.7c0.5,0.2,1,0.4,1.4,0.6c1.8,0.8,3.6,1.5,5.4,2.3c1,0.5,2.1,0.9,3.1,1.4c1,0.5,2,1,3.1,1.5
	c0.1,0,0.2,0.1,0.3,0.1c0.9,0.5,1.8,0.9,2.8,1.4c0.7,0.3,1.3,0.7,2,1c0.1,0.1,0.3,0.1,0.4,0.2c1.2,0.6,2.3,1.2,3.5,1.9
	c0.2,0.1,0.4,0.2,0.6,0.3c0.8,0.5,1.6,0.9,2.5,1.4c0.2,0.1,0.4,0.2,0.5,0.3c0.3,0.2,0.7,0.4,1,0.6c0.5,0.3,0.9,0.4,1.4,0.7
	c1,0.6,1.9,1.6,2.9,1.6h0c1,1,1.9,1.3,2.9,1.9c0,0,0.1,0.1,0.1,0.1c0.6,0.3,1.1,0.7,1.7,1.1c0.3,0.2,0.5,0.3,0.8,0.5
	c2,1.3,4,2.7,6,4.1c0.7,0.5,1.4,1,2.1,1.5c1,0.8,2.1,1.5,3.1,2.3c0.9,0.7,1.8,1.4,2.7,2.1c0.9,0.7,1.8,1.4,2.6,2.1
	c1,0.8,1.9,1.6,2.9,2.4c0.7,0.6,1.3,1.1,2,1.7c2.6,2.3,5.2,4.6,7.7,7c0.8,0.8,1.6,1.6,2.4,2.4c0.8,0.8,1.5,1.5,2.3,2.3
	c0.1,0.1,0.2,0.2,0.3,0.3c0.7,0.7,1.5,1.5,2.2,2.2c0.8,0.8,1.5,1.6,2.3,2.5c0.8,0.8,1.5,1.6,2.3,2.5c0.6,0.7,1.3,1.5,1.9,2.2
	c0.2,0.2,0.4,0.4,0.6,0.7c0.6,0.7,1.3,1.5,1.9,2.2c0.7,0.9,1.4,1.7,2.1,2.6c0.7,0.9,1.5,1.8,2.2,2.8c0.7,0.8,1.3,1.7,2,2.6
	c0.7,0.9,1.3,1.8,2,2.7c0.7,0.9,1.3,1.8,2,2.7c0.6,0.9,1.3,1.8,1.9,2.8c0.6,0.9,1.2,1.8,1.8,2.7c0.6,1,1.3,2,1.9,3
	c0.5,0.8,1,1.6,1.5,2.5c0.7,1.1,1.4,2.2,2,3.4c0.4,0.7,0.8,1.3,1.2,2c0.3,0.5,0.5,1,0.8,1.5c0.4,0.8,0.9,1.5,1.3,2.3
	c0.4,0.7,0.8,1.4,1.1,2.1c0.2,0.3,0.4,0.7,0.5,1c3,5.7,5.7,11.6,8.2,17.6c0.3,0.6,0.5,1.2,0.7,1.8c0.5,1.3,1,2.5,1.5,3.8
	c0.3,0.7,0.5,1.3,0.7,2c0.3,0.9,0.7,1.9,1,2.8c0.4,1.3,0.9,2.6,1.3,3.9c0.3,0.8,0.5,1.6,0.8,2.3c0.5,1.4,0.9,2.9,1.3,4.3
	c0.3,0.9,0.5,1.8,0.8,2.7c0.3,1.1,0.6,2.2,0.9,3.3c0.2,0.8,0.4,1.6,0.6,2.5c0.1,0.5,0.2,1,0.3,1.4c0.2,0.8,0.3,1.5,0.5,2.2
	c0.2,1.1,0.5,2.1,0.7,3.2c0.1,0.7,0.3,1.3,0.4,2c0.1,0.8,0.3,1.5,0.4,2.3c0.1,0.8,0.3,1.6,0.4,2.4c0,0.2,0.1,0.3,0.1,0.5
	c0.1,0.7,0.2,1.3,0.3,2c0.1,0.3,0.1,0.6,0.2,1c0.1,0.5,0.2,0.9,0.2,1.4c0,0.1,0,0.2,0,0.3c0.3,1.8,0.5,3.6,0.7,5.4
	c0.1,0.5,0.1,1.1,0.2,1.6c0.1,0.9,0.2,1.9,0.3,2.9c0.3,3.3,0.6,6.5,0.7,9.8C466.3,201.1,466.3,201.3,466.3,201.4z"/>
<path id="XMLID_28_" class="st1" d="M466.6,212c0,33.8-8.1,65.8-22.5,94c-1.8,3.5-3.6,6.9-5.5,10.2C402.7,378,335.7,419.6,259,419.6
	c-102.7,0-187.9-74.5-204.6-172.4c-0.6-3.4-1.1-6.8-1.5-10.2c-1-8.2-1.5-16.5-1.5-25c0-2.6-0.3-5.2-0.2-7.7c0-1.1-0.2-2.1-0.2-3.2
	V201c0-2.6,0.7-5.1,0.9-7.6c9.4-105.9,98.6-189,207-189c2.4,0,4.8,0.1,7.2,0.1c0.5,0,1.1,0.1,1.7,0.1c1,0,2,0.1,3,0.2
	c0.8,0,1.6,0.1,2.3,0.1c0.5,0,1,0.1,1.6,0.1c0.6,0,1.2,0.1,1.8,0.2c0.8,0.1,1.6,0.1,2.5,0.2c0.6,0,1.2,0.1,1.7,0.2
	c0.5,0.1,1.1,0.1,1.6,0.2c0.8,0.1,1.5,0.2,2.3,0.3c0.8,0.1,1.7,0.2,2.5,0.3c0.2,0,0.3,0,0.4,0.1c0.1,0,0.3,0,0.4,0.1
	c0,0,0.1,0,0.1,0c0.2,0,0.4,0,0.6,0.1c0.2,0,0.3,0.1,0.5,0.1c0.6,0.1,1.3,0.2,2,0.3c0.1,0,0.2,0.1,0.3,0.1h0c0.2,0,0.4,0,0.7,0.1
	c0.4,0.1,0.8,0.1,1.2,0.2c0.1,0,0.2,0,0.3,0c0,0,0.1,0,0.2,0c1.1,0.2,2.1,0.4,3.2,0.6c0.2,0,0.4,0.1,0.5,0.1
	c0.5,0.1,1.1,0.2,1.6,0.3c0.2,0,0.4,0.1,0.6,0.1c0.4,0.1,0.8,0.1,1.1,0.2c0.8,0.2,1.6,0.3,2.4,0.5c0.6,0.1,1.2,0.3,1.8,0.4
	c0.3,0.1,0.6,0.1,0.9,0.2c0.7,0.2,1.3,0.3,2,0.5c0.7,0.1,1.3,0.3,2,0.5c0.4,0.1,0.8,0.2,1.2,0.3c0.4,0.1,0.8,0.2,1.2,0.3
	c0.4,0.1,0.9,0.2,1.3,0.4c0.3,0.1,0.5,0.1,0.8,0.2c0.9,0.2,1.8,0.5,2.7,0.8c0.1,0,0.2,0,0.2,0.1c0.8,0.2,1.5,0.5,2.3,0.7
	c0.8,0.2,1.5,0.5,2.3,0.7c4.6,1.4,9.1,3,13.5,4.8c0.6,0.2,1.2,0.5,1.9,0.7c0.5,0.2,1,0.4,1.4,0.6c1.8,0.8,3.6,1.5,5.4,2.3
	c1,0.5,2.1,0.9,3.1,1.4c1,0.5,2,1,3.1,1.5c0.1,0,0.2,0.1,0.3,0.1c0.9,0.5,1.8,0.9,2.8,1.4c0.7,0.3,1.3,0.7,2,1
	c0.1,0.1,0.3,0.1,0.4,0.2c1.2,0.6,2.3,1.2,3.5,1.9c0.2,0.1,0.4,0.2,0.6,0.3c0.8,0.5,1.6,0.9,2.5,1.4c0.2,0.1,0.4,0.2,0.5,0.3
	c0.3,0.2,0.7,0.4,1,0.6c0.5,0.3,0.9,0.4,1.4,0.7c1,0.6,1.9,1.6,2.9,1.6h0c1,1,1.9,1.3,2.9,1.9c0,0,0.1,0.1,0.1,0.1
	c0.6,0.3,1.1,0.7,1.7,1.1c0.3,0.2,0.5,0.3,0.8,0.5c2,1.3,4,2.7,6,4.1c0.7,0.5,1.4,1,2.1,1.5c1,0.8,2.1,1.5,3.1,2.3
	c0.9,0.7,1.8,1.4,2.7,2.1c0.9,0.7,1.8,1.4,2.6,2.1c1,0.8,1.9,1.6,2.9,2.4c0.7,0.6,1.3,1.1,2,1.7c2.6,2.3,5.2,4.6,7.7,7
	c0.8,0.8,1.6,1.6,2.4,2.4c0.8,0.8,1.5,1.5,2.3,2.3c0.1,0.1,0.2,0.2,0.3,0.3c0.7,0.7,1.5,1.5,2.2,2.2c0.8,0.8,1.5,1.6,2.3,2.5
	c0.8,0.8,1.5,1.6,2.3,2.5c0.6,0.7,1.3,1.5,1.9,2.2c0.2,0.2,0.4,0.4,0.6,0.7c0.6,0.7,1.3,1.5,1.9,2.2c0.7,0.9,1.4,1.7,2.1,2.6
	c0.7,0.9,1.5,1.8,2.2,2.8c0.7,0.8,1.3,1.7,2,2.6c0.7,0.9,1.3,1.8,2,2.7c0.7,0.9,1.3,1.8,2,2.7c0.6,0.9,1.3,1.8,1.9,2.8
	c0.6,0.9,1.2,1.8,1.8,2.7c0.6,1,1.3,2,1.9,3c0.5,0.8,1,1.6,1.5,2.5c0.7,1.1,1.4,2.2,2,3.4c0.4,0.7,0.8,1.3,1.2,2
	c0.3,0.5,0.5,1,0.8,1.5c0.4,0.8,0.9,1.5,1.3,2.3c0.4,0.7,0.8,1.4,1.1,2.1c0.2,0.3,0.4,0.7,0.5,1c3,5.7,5.7,11.6,8.2,17.6
	c0.3,0.6,0.5,1.2,0.7,1.8c0.5,1.3,1,2.5,1.5,3.8c0.3,0.7,0.5,1.3,0.7,2c0.3,0.9,0.7,1.9,1,2.8c0.4,1.3,0.9,2.6,1.3,3.9
	c0.3,0.8,0.5,1.6,0.8,2.3c0.5,1.4,0.9,2.9,1.3,4.3c0.3,0.9,0.5,1.8,0.8,2.7c0.3,1.1,0.6,2.2,0.9,3.3c0.2,0.8,0.4,1.6,0.6,2.5
	c0.1,0.5,0.2,1,0.3,1.4c0.2,0.8,0.3,1.5,0.5,2.2c0.2,1.1,0.5,2.1,0.7,3.2c0.1,0.7,0.3,1.3,0.4,2c0.1,0.8,0.3,1.5,0.4,2.3
	c0.1,0.8,0.3,1.6,0.4,2.4c0,0.2,0.1,0.3,0.1,0.5c0.1,0.7,0.2,1.3,0.3,2c0.1,0.3,0.1,0.6,0.2,1c0.1,0.5,0.2,0.9,0.2,1.4
	c0,0.1,0,0.2,0,0.3c0.3,1.8,0.5,3.6,0.7,5.4c0.1,0.5,0.1,1.1,0.2,1.6c0.1,0.9,0.2,1.9,0.3,2.9c0.3,3.3,0.6,6.5,0.7,9.8
	c0,0.1,0,0.3,0,0.4c0,0,0,0,0,0C466.5,205,466.6,208.5,466.6,212z"/>
<path id="XMLID_6_" class="st2" d="M321.3,139c-22.8,30.4-38.3,43.1-54.1,56.8c5.7,7.7,12.2,14.7,19.3,21.3
	c14.6,13.5,31.7,25,48.8,36.1l10.8-11.9l22.2,2.7l21.1-12.4l23.8,17.8l37.8-11.4C407.4,214.3,362.4,187.5,321.3,139z M228.3,167.6
	c-26.6,35.8-54.7,64.1-83.1,87.4c0,0,0,0,0,0c-19.7,16.1-39.5,29.9-59.1,41.9l0,0c0,0,0,0-0.1,0h0c-1.8,1-3.7,2.1-5.5,3.2L97,311.8
	c0,0,0,0,0,0l0.8,0.6l33.6,23.5l79.6-27l56.8,15.7l67.6-33l55.7,2.2C345.2,265.4,295.8,248.1,228.3,167.6z"/>
<polyline id="XMLID_2_" class="st3" points="176,338 369.6,338 401.1,306 515,306 "/>
<polyline id="XMLID_4_" class="st3" points="5,237 127.5,237 168,278 314,278 "/>
<polyline id="XMLID_7_" class="st4" points="277,217 303.5,217 313.9,227 367,227 "/>
<polyline id="XMLID_22_" class="st5" points="378,190 408.5,190 417.4,181 464,181 464.1,181 464.1,181 464.1,181 465,181 
	465.2,181 478,181 "/>
</svg>
